<svg xmlns="http://www.w3.org/2000/svg" version="1.1" xmlns:xlink="http://www.w3.org/1999/xlink" xmlns:svgjs="http://svgjs.dev/svgjs" width="1500" height="287" viewBox="0 0 1500 287"><g transform="matrix(1,0,0,1,-0.9090909090907644,-0.785338104978365)"><svg viewBox="0 0 396 76" data-background-color="#ffffff" preserveAspectRatio="xMidYMid meet" height="287" width="1500" xmlns="http://www.w3.org/2000/svg" xmlns:xlink="http://www.w3.org/1999/xlink"><g id="tight-bounds" transform="matrix(1,0,0,1,0.23999999999995225,0.20796409748555789)"><svg viewBox="0 0 395.52 75.58407180502891" height="75.58407180502891" width="395.52"><g><svg viewBox="0 0 537.4617189534678 102.70920600180314" height="75.58407180502891" width="395.52"><g><rect width="6.373643382891185" height="102.70920600180314" x="118.88314524887198" y="0" fill="#111111" opacity="1" stroke-width="0" stroke="transparent" fill-opacity="1" class="rect-yte-0" data-fill-palette-color="primary" rx="1%" id="yte-0" data-palette-color="#111111"></rect></g><g transform="matrix(1,0,0,1,141.94171895346784,0.25549553731791264)"><svg viewBox="0 0 395.5199999999999 102.19821492716731" height="102.19821492716731" width="395.5199999999999"><g id="textblocktransform"><svg viewBox="0 0 395.5199999999999 102.19821492716731" height="102.19821492716731" width="395.5199999999999" id="textblock"><g><svg viewBox="0 0 395.5199999999999 70.67609719626168" height="70.67609719626168" width="395.5199999999999"><g transform="matrix(1,0,0,1,0,0)"><svg width="395.5199999999999" viewBox="4 -35.01 195.91 35.01" height="70.67609719626168" data-palette-color="#111111"><path d="M26.49-14.99L9.5-14.99Q8.47-14.99 7.56-15.39 6.64-15.8 5.96-16.47 5.27-17.14 4.88-18.05 4.49-18.97 4.49-20L4.49-20 4.49-30Q4.49-31.03 4.88-31.95 5.27-32.86 5.96-33.53 6.64-34.2 7.56-34.61 8.47-35.01 9.5-35.01L9.5-35.01 26.49-35.01Q27.51-35.01 28.43-34.61 29.35-34.2 30.03-33.53 30.71-32.86 31.1-31.95 31.49-31.03 31.49-30L31.49-30 31.49-25.49 26.49-25.49 26.49-30 9.5-30 9.5-20 26.49-20Q27.51-20 28.43-19.6 29.35-19.21 30.03-18.53 30.71-17.85 31.1-16.93 31.49-16.02 31.49-14.99L31.49-14.99 31.49-5Q31.49-3.98 31.1-3.06 30.71-2.15 30.03-1.46 29.35-0.78 28.43-0.39 27.51 0 26.49 0L26.49 0 9.01 0Q7.98 0 7.07-0.39 6.15-0.78 5.47-1.46 4.79-2.15 4.39-3.06 4-3.98 4-5L4-5 4-9.5 9.01-9.5 9.01-5 26.49-5 26.49-14.99ZM62.01-21.19L62.01-10.55 44.8-10.55 44.8-4.81 62.01-4.81 62.01 0 44.8 0Q43.82 0 42.94-0.38 42.06-0.76 41.42-1.4 40.77-2.05 40.39-2.93 40.01-3.81 40.01-4.81L40.01-4.81 40.01-21.19Q40.01-22.19 40.39-23.07 40.77-23.95 41.42-24.6 42.06-25.24 42.94-25.62 43.82-26 44.8-26L44.8-26 57.2-26Q58.2-26 59.08-25.62 59.96-25.24 60.61-24.6 61.25-23.95 61.63-23.07 62.01-22.19 62.01-21.19L62.01-21.19ZM57.2-21.19L44.8-21.19 44.8-15.36 57.2-15.36 57.2-21.19ZM101.61-21.19L90.62-21.19 90.62 0 85.81 0 85.81-21.19 74.8-21.19 74.8 0 70.01 0 70.01-26 74.8-26 74.8-21.41Q74.85-22.36 75.24-23.21 75.63-24.05 76.28-24.67 76.92-25.29 77.78-25.65 78.63-26 79.61-26L79.61-26 85.81-26Q86.76-26 87.62-25.65 88.47-25.29 89.13-24.67 89.79-24.05 90.19-23.21 90.6-22.36 90.62-21.41L90.62-21.41Q90.67-22.36 91.05-23.21 91.43-24.05 92.07-24.67 92.72-25.29 93.57-25.65 94.43-26 95.41-26L95.41-26 101.61-26Q102.61-26 103.49-25.62 104.37-25.24 105.01-24.6 105.66-23.95 106.04-23.07 106.42-22.19 106.42-21.19L106.42-21.19 106.42 0 101.61 0 101.61-21.19ZM114.42-4.81L114.42-11.35Q114.42-12.35 114.8-13.22 115.18-14.09 115.83-14.75 116.47-15.41 117.35-15.78 118.23-16.16 119.21-16.16L119.21-16.16 131.61-16.16 131.61-21.19 115.91-21.19 115.91-26 131.61-26Q132.61-26 133.49-25.62 134.37-25.24 135.01-24.6 135.66-23.95 136.04-23.07 136.42-22.19 136.42-21.19L136.42-21.19 136.42 0 131.61 0 131.61-4.39Q131.54-3.49 131.12-2.69 130.71-1.88 130.06-1.28 129.41-0.68 128.58-0.34 127.75 0 126.82 0L126.82 0 119.21 0Q118.23 0 117.35-0.38 116.47-0.76 115.83-1.4 115.18-2.05 114.8-2.93 114.42-3.81 114.42-4.81L114.42-4.81ZM119.21-11.35L119.21-4.81 131.61-4.81 131.61-11.35 119.21-11.35ZM170.4-35.01L175.4-35.01 188.9 0 183.9 0 180.8-8.06 165-8.06 161.9 0 156.9 0 170.4-35.01ZM172.91-28.49L166.91-13.06 178.87-13.06 172.91-28.49ZM194.91-35.01L199.91-35.01 199.91 0 194.91 0 194.91-35.01Z" opacity="1" transform="matrix(1,0,0,1,0,0)" fill="#111111" class="wordmark-text-0" data-fill-palette-color="primary" id="text-0"></path></svg></g></svg></g><g transform="matrix(1,0,0,1,0,87.36102751796635)"><svg viewBox="0 0 232.20979199999996 14.837187409200963" height="14.837187409200963" width="232.20979199999996"><g transform="matrix(1,0,0,1,0,0)"><svg width="232.20979199999996" viewBox="4.85 -35.95 743.31 47.5" height="14.837187409200963" data-palette-color="#111111"><path d="M14.4 0L4.85 0 4.85-32.95 13.75-32.95Q18.75-32.95 21.7-31.03 24.65-29.1 24.65-24.95L24.65-24.95Q24.65-22.35 23.35-20.43 22.05-18.5 19.55-17.75L19.55-17.75 19.55-17.55Q22.75-17 24.7-15.03 26.65-13.05 26.65-9.6L26.65-9.6Q26.65-7.2 25.78-5.4 24.9-3.6 23.3-2.4 21.7-1.2 19.45-0.6 17.2 0 14.4 0L14.4 0ZM7.15-31.05L7.15-18.45 12.85-18.45Q17.9-18.45 20.13-20.13 22.35-21.8 22.35-24.7L22.35-24.7Q22.35-28.2 20-29.63 17.65-31.05 13.1-31.05L13.1-31.05 7.15-31.05ZM7.15-16.55L7.15-1.9 13.8-1.9Q18.75-1.9 21.58-3.75 24.4-5.6 24.4-9.55L24.4-9.55Q24.4-13.15 21.65-14.85 18.9-16.55 13.8-16.55L13.8-16.55 7.15-16.55ZM35.7 0L33.5 0 33.5-24 35.4-24 35.6-19.55 35.75-19.55Q36.95-21.8 38.67-23.2 40.4-24.6 42.55-24.6L42.55-24.6Q43.25-24.6 43.8-24.5 44.35-24.4 44.95-24.1L44.95-24.1 44.45-22.1Q43.85-22.35 43.4-22.43 42.95-22.5 42.25-22.5L42.25-22.5Q40.65-22.5 38.87-21.13 37.1-19.75 35.7-16.35L35.7-16.35 35.7 0ZM51.55 0L49.35 0 49.35-24 51.55-24 51.55 0ZM50.5-29.8L50.5-29.8Q49.65-29.8 49.07-30.35 48.5-30.9 48.5-31.75L48.5-31.75Q48.5-32.7 49.07-33.23 49.65-33.75 50.5-33.75L50.5-33.75Q51.35-33.75 51.92-33.23 52.5-32.7 52.5-31.75L52.5-31.75Q52.5-30.9 51.92-30.35 51.35-29.8 50.5-29.8ZM68.74 0.6L68.74 0.6Q64.19 0.6 61.49-2.63 58.79-5.85 58.79-11.95L58.79-11.95Q58.79-14.85 59.64-17.2 60.49-19.55 61.97-21.2 63.44-22.85 65.37-23.73 67.29-24.6 69.44-24.6L69.44-24.6Q71.64-24.6 73.27-23.83 74.89-23.05 76.69-21.65L76.69-21.65 76.59-26.05 76.59-35.95 78.79-35.95 78.79 0 76.89 0 76.69-3.1 76.54-3.1Q75.09-1.65 73.12-0.53 71.14 0.6 68.74 0.6ZM69.04-1.35L69.04-1.35Q71.04-1.35 72.87-2.38 74.69-3.4 76.59-5.3L76.59-5.3 76.59-19.55Q74.69-21.25 73.02-21.95 71.34-22.65 69.59-22.65L69.59-22.65Q67.79-22.65 66.24-21.83 64.69-21 63.57-19.58 62.44-18.15 61.79-16.18 61.14-14.2 61.14-11.95L61.14-11.95Q61.14-9.55 61.67-7.6 62.19-5.65 63.19-4.28 64.19-2.9 65.67-2.13 67.14-1.35 69.04-1.35ZM95.84 11.55L95.84 11.55Q91.29 11.55 88.64 9.75 85.99 7.95 85.99 4.9L85.99 4.9Q85.99 3.3 86.94 1.8 87.89 0.3 89.54-0.9L89.54-0.9 89.54-1.1Q88.64-1.65 88.04-2.6 87.44-3.55 87.44-4.95L87.44-4.95Q87.44-6.55 88.34-7.68 89.24-8.8 90.04-9.35L90.04-9.35 90.04-9.55Q88.89-10.55 87.97-12.25 87.04-13.95 87.04-16.15L87.04-16.15Q87.04-18 87.69-19.55 88.34-21.1 89.49-22.23 90.64-23.35 92.19-23.98 93.74-24.6 95.49-24.6L95.49-24.6Q96.49-24.6 97.29-24.43 98.09-24.25 98.64-24L98.64-24 106.79-24 106.79-22.15 101.19-22.15Q102.34-21.15 103.09-19.58 103.84-18 103.84-16.1L103.84-16.1Q103.84-14.25 103.19-12.7 102.54-11.15 101.42-10.03 100.29-8.9 98.77-8.28 97.24-7.65 95.49-7.65L95.49-7.65Q94.49-7.65 93.42-7.9 92.34-8.15 91.49-8.65L91.49-8.65Q90.69-8 90.12-7.2 89.54-6.4 89.54-5.2L89.54-5.2Q89.54-3.9 90.49-2.98 91.44-2.05 94.14-2.05L94.14-2.05 99.29-2.05Q103.34-2.05 105.27-0.73 107.19 0.6 107.19 3.45L107.19 3.45Q107.19 5 106.39 6.48 105.59 7.95 104.12 9.08 102.64 10.2 100.54 10.88 98.44 11.55 95.84 11.55ZM95.49-9.4L95.49-9.4Q96.74-9.4 97.87-9.88 98.99-10.35 99.84-11.25 100.69-12.15 101.19-13.4 101.69-14.65 101.69-16.15L101.69-16.15Q101.69-17.65 101.19-18.9 100.69-20.15 99.87-21 99.04-21.85 97.89-22.33 96.74-22.8 95.49-22.8L95.49-22.8Q94.19-22.8 93.07-22.33 91.94-21.85 91.09-21 90.24-20.15 89.74-18.93 89.24-17.7 89.24-16.15L89.24-16.15Q89.24-14.65 89.74-13.4 90.24-12.15 91.12-11.25 91.99-10.35 93.12-9.88 94.24-9.4 95.49-9.4ZM96.09 9.75L96.09 9.75Q98.09 9.75 99.74 9.22 101.39 8.7 102.54 7.85 103.69 7 104.32 5.93 104.94 4.85 104.94 3.7L104.94 3.7Q104.94 1.7 103.52 0.88 102.09 0.05 99.39 0.05L99.39 0.05 94.24 0.05Q93.84 0.05 93.02-0.03 92.19-0.1 91.24-0.35L91.24-0.35Q89.59 0.8 88.84 2.1 88.09 3.4 88.09 4.7L88.09 4.7Q88.09 6.95 90.17 8.35 92.24 9.75 96.09 9.75ZM114.54 0L112.34 0 112.34-24 114.54-24 114.54 0ZM113.49-29.8L113.49-29.8Q112.64-29.8 112.06-30.35 111.49-30.9 111.49-31.75L111.49-31.75Q111.49-32.7 112.06-33.23 112.64-33.75 113.49-33.75L113.49-33.75Q114.34-33.75 114.91-33.23 115.49-32.7 115.49-31.75L115.49-31.75Q115.49-30.9 114.91-30.35 114.34-29.8 113.49-29.8ZM125.99 0L123.79 0 123.79-24 125.69-24 125.89-20.3 126.04-20.3Q127.89-22.15 129.84-23.38 131.79-24.6 134.29-24.6L134.29-24.6Q138.04-24.6 139.79-22.35 141.54-20.1 141.54-15.4L141.54-15.4 141.54 0 139.34 0 139.34-15.1Q139.34-18.95 138.06-20.78 136.79-22.6 133.84-22.6L133.84-22.6Q131.69-22.6 129.94-21.48 128.19-20.35 125.99-18.1L125.99-18.1 125.99 0ZM158.23 11.55L158.23 11.55Q153.68 11.55 151.03 9.75 148.38 7.95 148.38 4.9L148.38 4.9Q148.38 3.3 149.33 1.8 150.28 0.3 151.93-0.9L151.93-0.9 151.93-1.1Q151.03-1.65 150.43-2.6 149.83-3.55 149.83-4.95L149.83-4.95Q149.83-6.55 150.73-7.68 151.63-8.8 152.43-9.35L152.43-9.35 152.43-9.55Q151.28-10.55 150.36-12.25 149.43-13.95 149.43-16.15L149.43-16.15Q149.43-18 150.08-19.55 150.73-21.1 151.88-22.23 153.03-23.35 154.58-23.98 156.13-24.6 157.88-24.6L157.88-24.6Q158.88-24.6 159.68-24.43 160.48-24.25 161.03-24L161.03-24 169.18-24 169.18-22.15 163.58-22.15Q164.73-21.15 165.48-19.58 166.23-18 166.23-16.1L166.23-16.1Q166.23-14.25 165.58-12.7 164.93-11.15 163.81-10.03 162.68-8.9 161.16-8.28 159.63-7.65 157.88-7.65L157.88-7.65Q156.88-7.65 155.81-7.9 154.73-8.15 153.88-8.65L153.88-8.65Q153.08-8 152.51-7.2 151.93-6.4 151.93-5.2L151.93-5.2Q151.93-3.9 152.88-2.98 153.83-2.05 156.53-2.05L156.53-2.05 161.68-2.05Q165.73-2.05 167.66-0.73 169.58 0.6 169.58 3.45L169.58 3.45Q169.58 5 168.78 6.48 167.98 7.95 166.51 9.08 165.03 10.2 162.93 10.88 160.83 11.55 158.23 11.55ZM157.88-9.4L157.88-9.4Q159.13-9.4 160.26-9.88 161.38-10.35 162.23-11.25 163.08-12.15 163.58-13.4 164.08-14.65 164.08-16.15L164.08-16.15Q164.08-17.65 163.58-18.9 163.08-20.15 162.26-21 161.43-21.85 160.28-22.33 159.13-22.8 157.88-22.8L157.88-22.8Q156.58-22.8 155.46-22.33 154.33-21.85 153.48-21 152.63-20.15 152.13-18.93 151.63-17.7 151.63-16.15L151.63-16.15Q151.63-14.65 152.13-13.4 152.63-12.15 153.51-11.25 154.38-10.35 155.51-9.88 156.63-9.4 157.88-9.4ZM158.48 9.75L158.48 9.75Q160.48 9.75 162.13 9.22 163.78 8.7 164.93 7.85 166.08 7 166.71 5.93 167.33 4.85 167.33 3.7L167.33 3.7Q167.33 1.7 165.91 0.88 164.48 0.05 161.78 0.05L161.78 0.05 156.63 0.05Q156.23 0.05 155.41-0.03 154.58-0.1 153.63-0.35L153.63-0.35Q151.98 0.8 151.23 2.1 150.48 3.4 150.48 4.7L150.48 4.7Q150.48 6.95 152.56 8.35 154.63 9.75 158.48 9.75ZM193.63 0.6L193.63 0.6Q191.28 0.6 189.3-0.25 187.33-1.1 185.85-2.7 184.38-4.3 183.55-6.63 182.73-8.95 182.73-11.95L182.73-11.95Q182.73-14.95 183.63-17.32 184.53-19.7 186.03-21.3 187.53-22.9 189.5-23.75 191.48-24.6 193.68-24.6L193.68-24.6Q196.18-24.6 197.83-23.7 199.48-22.8 200.73-21.65L200.73-21.65 199.43-20.1Q198.28-21.2 196.88-21.93 195.48-22.65 193.73-22.65L193.73-22.65Q191.88-22.65 190.3-21.88 188.73-21.1 187.55-19.68 186.38-18.25 185.7-16.3 185.03-14.35 185.03-11.95L185.03-11.95Q185.03-9.6 185.65-7.65 186.28-5.7 187.4-4.3 188.53-2.9 190.15-2.13 191.78-1.35 193.73-1.35L193.73-1.35Q195.63-1.35 197.25-2.15 198.88-2.95 200.13-4.1L200.13-4.1 201.28-2.55Q199.73-1.2 197.83-0.3 195.93 0.6 193.63 0.6ZM214.08 0.6L214.08 0.6Q210.33 0.6 208.58-1.65 206.83-3.9 206.83-8.6L206.83-8.6 206.83-24 209.03-24 209.03-8.9Q209.03-5.05 210.3-3.23 211.58-1.4 214.48-1.4L214.48-1.4Q216.63-1.4 218.38-2.58 220.13-3.75 222.23-6.3L222.23-6.3 222.23-24 224.43-24 224.43 0 222.58 0 222.33-4 222.23-4Q220.48-1.9 218.53-0.65 216.58 0.6 214.08 0.6ZM236.57 0.6L236.57 0.6Q233.62 0.6 233.62-3.2L233.62-3.2 233.62-35.95 235.82-35.95 235.82-2.9Q235.82-2.1 236.12-1.73 236.42-1.35 236.87-1.35L236.87-1.35Q237.02-1.35 237.2-1.35 237.37-1.35 237.77-1.45L237.77-1.45 238.17 0.35Q237.82 0.45 237.47 0.53 237.12 0.6 236.57 0.6ZM252.02 0.6L252.02 0.6Q250.27 0.6 249.12 0.08 247.97-0.45 247.27-1.4 246.57-2.35 246.3-3.7 246.02-5.05 246.02-6.65L246.02-6.65 246.02-22.1 242.27-22.1 242.27-23.8 246.07-24 246.37-30.95 248.27-30.95 248.27-24 255.22-24 255.22-22.1 248.27-22.1 248.27-6.45Q248.27-5.3 248.45-4.38 248.62-3.45 249.07-2.78 249.52-2.1 250.3-1.73 251.07-1.35 252.32-1.35L252.32-1.35Q253.02-1.35 253.85-1.58 254.67-1.8 255.32-2.1L255.32-2.1 255.92-0.3Q254.87 0.1 253.82 0.35 252.77 0.6 252.02 0.6ZM267.97 0.6L267.97 0.6Q264.22 0.6 262.47-1.65 260.72-3.9 260.72-8.6L260.72-8.6 260.72-24 262.92-24 262.92-8.9Q262.92-5.05 264.19-3.23 265.47-1.4 268.37-1.4L268.37-1.4Q270.52-1.4 272.27-2.58 274.02-3.75 276.12-6.3L276.12-6.3 276.12-24 278.32-24 278.32 0 276.47 0 276.22-4 276.12-4Q274.37-1.9 272.42-0.65 270.47 0.6 267.97 0.6ZM289.72 0L287.52 0 287.52-24 289.42-24 289.62-19.55 289.77-19.55Q290.97-21.8 292.69-23.2 294.42-24.6 296.56-24.6L296.56-24.6Q297.27-24.6 297.81-24.5 298.37-24.4 298.97-24.1L298.97-24.1 298.47-22.1Q297.87-22.35 297.42-22.43 296.97-22.5 296.27-22.5L296.27-22.5Q294.67-22.5 292.89-21.13 291.12-19.75 289.72-16.35L289.72-16.35 289.72 0ZM311.96 0.6L311.96 0.6Q309.66 0.6 307.64-0.25 305.61-1.1 304.11-2.73 302.61-4.35 301.74-6.68 300.86-9 300.86-11.95L300.86-11.95Q300.86-14.9 301.74-17.25 302.61-19.6 304.09-21.23 305.56-22.85 307.44-23.73 309.31-24.6 311.31-24.6L311.31-24.6Q315.61-24.6 318.06-21.7 320.51-18.8 320.51-13.5L320.51-13.5Q320.51-13.05 320.51-12.6 320.51-12.15 320.41-11.7L320.41-11.7 303.11-11.7Q303.16-9.45 303.81-7.53 304.46-5.6 305.64-4.23 306.81-2.85 308.46-2.08 310.11-1.3 312.16-1.3L312.16-1.3Q314.11-1.3 315.69-1.88 317.26-2.45 318.61-3.45L318.61-3.45 319.51-1.75Q318.06-0.9 316.34-0.15 314.61 0.6 311.96 0.6ZM303.11-13.5L303.11-13.5 318.41-13.5Q318.41-18.15 316.51-20.43 314.61-22.7 311.36-22.7L311.36-22.7Q309.81-22.7 308.41-22.08 307.01-21.45 305.89-20.25 304.76-19.05 304.04-17.35 303.31-15.65 303.11-13.5ZM332.81 0.6L332.81 0.6Q330.11 0.6 327.86-0.38 325.61-1.35 324.01-2.7L324.01-2.7 325.31-4.35Q326.86-3.05 328.61-2.18 330.36-1.3 332.96-1.3L332.96-1.3Q335.81-1.3 337.24-2.73 338.66-4.15 338.66-6.05L338.66-6.05Q338.66-7.15 338.14-8 337.61-8.85 336.76-9.45 335.91-10.05 334.89-10.5 333.86-10.95 332.81-11.35L332.81-11.35Q331.46-11.85 330.09-12.4 328.71-12.95 327.61-13.73 326.51-14.5 325.84-15.58 325.16-16.65 325.16-18.2L325.16-18.2Q325.16-19.5 325.66-20.68 326.16-21.85 327.16-22.73 328.16-23.6 329.59-24.1 331.01-24.6 332.91-24.6L332.91-24.6Q334.81-24.6 336.64-23.9 338.46-23.2 339.76-22.1L339.76-22.1 338.56-20.55Q337.36-21.45 336.01-22.08 334.66-22.7 332.81-22.7L332.81-22.7Q331.41-22.7 330.41-22.33 329.41-21.95 328.74-21.35 328.06-20.75 327.74-19.95 327.41-19.15 327.41-18.35L327.41-18.35Q327.41-17.3 327.89-16.57 328.36-15.85 329.16-15.3 329.96-14.75 330.99-14.33 332.01-13.9 333.06-13.5L333.06-13.5Q334.46-12.95 335.86-12.4 337.26-11.85 338.39-11.05 339.51-10.25 340.21-9.08 340.91-7.9 340.91-6.15L340.91-6.15Q340.91-4.8 340.39-3.58 339.86-2.35 338.81-1.43 337.76-0.5 336.26 0.05 334.76 0.6 332.81 0.6ZM345.76 7.75L345.76 7.75 345.06 6.25Q346.81 5.35 347.86 3.8 348.91 2.25 348.91 0.2L348.91 0.2Q348.71 0.25 348.31 0.25L348.31 0.25Q347.46 0.25 346.83-0.3 346.21-0.85 346.21-1.85L346.21-1.85Q346.21-2.85 346.86-3.4 347.51-3.95 348.36-3.95L348.36-3.95Q349.51-3.95 350.21-3 350.91-2.05 350.91-0.4L350.91-0.4Q350.91 2.35 349.46 4.45 348.01 6.55 345.76 7.75ZM376.95 0.6L376.95 0.6Q374.8 0.6 372.85-0.25 370.9-1.1 369.43-2.7 367.95-4.3 367.08-6.63 366.2-8.95 366.2-11.95L366.2-11.95Q366.2-14.95 367.08-17.32 367.95-19.7 369.43-21.3 370.9-22.9 372.85-23.75 374.8-24.6 376.95-24.6L376.95-24.6Q379.1-24.6 381.08-23.75 383.05-22.9 384.53-21.3 386-19.7 386.88-17.32 387.75-14.95 387.75-11.95L387.75-11.95Q387.75-8.95 386.88-6.63 386-4.3 384.53-2.7 383.05-1.1 381.08-0.25 379.1 0.6 376.95 0.6ZM376.95-1.35L376.95-1.35Q378.75-1.35 380.33-2.13 381.9-2.9 383.03-4.3 384.15-5.7 384.8-7.65 385.45-9.6 385.45-11.95L385.45-11.95Q385.45-14.35 384.8-16.3 384.15-18.25 383.03-19.68 381.9-21.1 380.33-21.88 378.75-22.65 376.95-22.65L376.95-22.65Q375.15-22.65 373.6-21.88 372.05-21.1 370.93-19.68 369.8-18.25 369.15-16.3 368.5-14.35 368.5-11.95L368.5-11.95Q368.5-9.6 369.15-7.65 369.8-5.7 370.93-4.3 372.05-2.9 373.6-2.13 375.15-1.35 376.95-1.35ZM397.15 0L394.95 0 394.95-24 396.85-24 397.05-20.3 397.2-20.3Q399.05-22.15 401-23.38 402.95-24.6 405.45-24.6L405.45-24.6Q409.2-24.6 410.95-22.35 412.7-20.1 412.7-15.4L412.7-15.4 412.7 0 410.5 0 410.5-15.1Q410.5-18.95 409.23-20.78 407.95-22.6 405-22.6L405-22.6Q402.85-22.6 401.1-21.48 399.35-20.35 397.15-18.1L397.15-18.1 397.15 0ZM430.65 0.6L430.65 0.6Q428.35 0.6 426.32-0.25 424.3-1.1 422.8-2.73 421.3-4.35 420.42-6.68 419.55-9 419.55-11.95L419.55-11.95Q419.55-14.9 420.42-17.25 421.3-19.6 422.77-21.23 424.25-22.85 426.12-23.73 428-24.6 430-24.6L430-24.6Q434.3-24.6 436.75-21.7 439.2-18.8 439.2-13.5L439.2-13.5Q439.2-13.05 439.2-12.6 439.2-12.15 439.1-11.7L439.1-11.7 421.8-11.7Q421.85-9.45 422.5-7.53 423.15-5.6 424.32-4.23 425.5-2.85 427.15-2.08 428.8-1.3 430.85-1.3L430.85-1.3Q432.8-1.3 434.37-1.88 435.95-2.45 437.3-3.45L437.3-3.45 438.2-1.75Q436.75-0.9 435.02-0.15 433.3 0.6 430.65 0.6ZM421.8-13.5L421.8-13.5 437.1-13.5Q437.1-18.15 435.2-20.43 433.3-22.7 430.05-22.7L430.05-22.7Q428.5-22.7 427.1-22.08 425.7-21.45 424.57-20.25 423.45-19.05 422.72-17.35 422-15.65 421.8-13.5ZM462.04 0L459.39 0 452.29-24 454.69-24 458.99-8.45Q459.44-6.8 459.84-5.23 460.24-3.65 460.64-2.05L460.64-2.05 460.84-2.05Q461.24-3.65 461.69-5.23 462.14-6.8 462.59-8.45L462.59-8.45 466.94-24 469.59-24 473.94-8.45Q474.39-6.8 474.84-5.23 475.29-3.65 475.74-2.05L475.74-2.05 475.94-2.05Q476.34-3.65 476.79-5.23 477.24-6.8 477.64-8.45L477.64-8.45 481.89-24 484.14-24 477.24 0 474.34 0 470.14-14.9Q469.59-16.65 469.22-18.32 468.84-20 468.29-21.75L468.29-21.75 468.09-21.75Q467.69-20 467.22-18.28 466.74-16.55 466.19-14.8L466.19-14.8 462.04 0ZM498.69 0.6L498.69 0.6Q496.54 0.6 494.59-0.25 492.64-1.1 491.17-2.7 489.69-4.3 488.82-6.63 487.94-8.95 487.94-11.95L487.94-11.95Q487.94-14.95 488.82-17.32 489.69-19.7 491.17-21.3 492.64-22.9 494.59-23.75 496.54-24.6 498.69-24.6L498.69-24.6Q500.84-24.6 502.82-23.75 504.79-22.9 506.27-21.3 507.74-19.7 508.62-17.32 509.49-14.95 509.49-11.95L509.49-11.95Q509.49-8.95 508.62-6.63 507.74-4.3 506.27-2.7 504.79-1.1 502.82-0.25 500.84 0.6 498.69 0.6ZM498.69-1.35L498.69-1.35Q500.49-1.35 502.07-2.13 503.64-2.9 504.77-4.3 505.89-5.7 506.54-7.65 507.19-9.6 507.19-11.95L507.19-11.95Q507.19-14.35 506.54-16.3 505.89-18.25 504.77-19.68 503.64-21.1 502.07-21.88 500.49-22.65 498.69-22.65L498.69-22.65Q496.89-22.65 495.34-21.88 493.79-21.1 492.67-19.68 491.54-18.25 490.89-16.3 490.24-14.35 490.24-11.95L490.24-11.95Q490.24-9.6 490.89-7.65 491.54-5.7 492.67-4.3 493.79-2.9 495.34-2.13 496.89-1.35 498.69-1.35ZM518.89 0L516.69 0 516.69-24 518.59-24 518.79-19.55 518.94-19.55Q520.14-21.8 521.86-23.2 523.59-24.6 525.74-24.6L525.74-24.6Q526.44-24.6 526.99-24.5 527.54-24.4 528.14-24.1L528.14-24.1 527.64-22.1Q527.04-22.35 526.59-22.43 526.14-22.5 525.44-22.5L525.44-22.5Q523.84-22.5 522.06-21.13 520.29-19.75 518.89-16.35L518.89-16.35 518.89 0ZM539.98 0.6L539.98 0.6Q535.43 0.6 532.73-2.63 530.03-5.85 530.03-11.95L530.03-11.95Q530.03-14.85 530.88-17.2 531.73-19.55 533.21-21.2 534.68-22.85 536.61-23.73 538.53-24.6 540.68-24.6L540.68-24.6Q542.88-24.6 544.51-23.83 546.13-23.05 547.93-21.65L547.93-21.65 547.83-26.05 547.83-35.95 550.03-35.95 550.03 0 548.13 0 547.93-3.1 547.78-3.1Q546.33-1.65 544.36-0.53 542.38 0.6 539.98 0.6ZM540.28-1.35L540.28-1.35Q542.28-1.35 544.11-2.38 545.93-3.4 547.83-5.3L547.83-5.3 547.83-19.55Q545.93-21.25 544.26-21.95 542.58-22.65 540.83-22.65L540.83-22.65Q539.03-22.65 537.48-21.83 535.93-21 534.81-19.58 533.68-18.15 533.03-16.18 532.38-14.2 532.38-11.95L532.38-11.95Q532.38-9.55 532.91-7.6 533.43-5.65 534.43-4.28 535.43-2.9 536.91-2.13 538.38-1.35 540.28-1.35ZM574.48 0.6L574.48 0.6Q573.03 0.6 571.78 0.2 570.53-0.2 569.58-1 568.63-1.8 568.08-3.05 567.53-4.3 567.53-6L567.53-6Q567.53-10 571.25-12.08 574.98-14.15 583.03-15.05L583.03-15.05Q583.03-16.4 582.83-17.78 582.63-19.15 581.98-20.23 581.33-21.3 580.23-21.98 579.13-22.65 577.33-22.65L577.33-22.65Q574.93-22.65 572.93-21.7 570.93-20.75 569.68-19.85L569.68-19.85 568.68-21.5Q569.33-21.95 570.25-22.5 571.18-23.05 572.33-23.5 573.48-23.95 574.83-24.28 576.18-24.6 577.63-24.6L577.63-24.6Q579.73-24.6 581.18-23.88 582.63-23.15 583.53-21.9 584.43-20.65 584.83-18.98 585.23-17.3 585.23-15.35L585.23-15.35 585.23 0 583.33 0 583.13-3.1 582.98-3.1Q581.13-1.65 579-0.53 576.88 0.6 574.48 0.6ZM574.88-1.3L574.88-1.3Q576.98-1.3 578.88-2.3 580.78-3.3 583.03-5.2L583.03-5.2 583.03-13.35Q579.33-12.9 576.78-12.25 574.23-11.6 572.68-10.7 571.13-9.8 570.45-8.65 569.78-7.5 569.78-6.1L569.78-6.1Q569.78-4.8 570.18-3.9 570.58-3 571.28-2.43 571.98-1.85 572.9-1.58 573.83-1.3 574.88-1.3ZM599.78 0.6L599.78 0.6Q598.03 0.6 596.88 0.08 595.73-0.45 595.03-1.4 594.33-2.35 594.05-3.7 593.78-5.05 593.78-6.65L593.78-6.65 593.78-22.1 590.03-22.1 590.03-23.8 593.83-24 594.13-30.95 596.03-30.95 596.03-24 602.98-24 602.98-22.1 596.03-22.1 596.03-6.45Q596.03-5.3 596.2-4.38 596.38-3.45 596.83-2.78 597.28-2.1 598.05-1.73 598.83-1.35 600.08-1.35L600.08-1.35Q600.78-1.35 601.6-1.58 602.43-1.8 603.08-2.1L603.08-2.1 603.68-0.3Q602.63 0.1 601.58 0.35 600.53 0.6 599.78 0.6ZM624.07 0.6L624.07 0.6Q622.62 0.6 621.37 0.2 620.12-0.2 619.17-1 618.22-1.8 617.67-3.05 617.12-4.3 617.12-6L617.12-6Q617.12-10 620.85-12.08 624.57-14.15 632.62-15.05L632.62-15.05Q632.62-16.4 632.42-17.78 632.22-19.15 631.57-20.23 630.92-21.3 629.82-21.98 628.72-22.65 626.92-22.65L626.92-22.65Q624.52-22.65 622.52-21.7 620.52-20.75 619.27-19.85L619.27-19.85 618.27-21.5Q618.92-21.95 619.85-22.5 620.77-23.05 621.92-23.5 623.07-23.95 624.42-24.28 625.77-24.6 627.22-24.6L627.22-24.6Q629.32-24.6 630.77-23.88 632.22-23.15 633.12-21.9 634.02-20.65 634.42-18.98 634.82-17.3 634.82-15.35L634.82-15.35 634.82 0 632.92 0 632.72-3.1 632.57-3.1Q630.72-1.65 628.6-0.53 626.47 0.6 624.07 0.6ZM624.47-1.3L624.47-1.3Q626.57-1.3 628.47-2.3 630.37-3.3 632.62-5.2L632.62-5.2 632.62-13.35Q628.92-12.9 626.37-12.25 623.82-11.6 622.27-10.7 620.72-9.8 620.05-8.65 619.37-7.5 619.37-6.1L619.37-6.1Q619.37-4.8 619.77-3.9 620.17-3 620.87-2.43 621.57-1.85 622.5-1.58 623.42-1.3 624.47-1.3ZM659.92 0.6L659.92 0.6Q658.17 0.6 657.02 0.08 655.87-0.45 655.17-1.4 654.47-2.35 654.19-3.7 653.92-5.05 653.92-6.65L653.92-6.65 653.92-22.1 650.17-22.1 650.17-23.8 653.97-24 654.27-30.95 656.17-30.95 656.17-24 663.12-24 663.12-22.1 656.17-22.1 656.17-6.45Q656.17-5.3 656.34-4.38 656.52-3.45 656.97-2.78 657.42-2.1 658.19-1.73 658.97-1.35 660.22-1.35L660.22-1.35Q660.92-1.35 661.74-1.58 662.57-1.8 663.22-2.1L663.22-2.1 663.82-0.3Q662.77 0.1 661.72 0.35 660.67 0.6 659.92 0.6ZM671.16 0L668.96 0 668.96-24 671.16-24 671.16 0ZM670.11-29.8L670.11-29.8Q669.26-29.8 668.69-30.35 668.11-30.9 668.11-31.75L668.11-31.75Q668.11-32.7 668.69-33.23 669.26-33.75 670.11-33.75L670.11-33.75Q670.96-33.75 671.54-33.23 672.11-32.7 672.11-31.75L672.11-31.75Q672.11-30.9 671.54-30.35 670.96-29.8 670.11-29.8ZM682.61 0L680.41 0 680.41-24 682.31-24 682.51-20.3 682.66-20.3Q684.26-22.15 686.24-23.38 688.21-24.6 690.21-24.6L690.21-24.6Q693.11-24.6 694.66-23.28 696.21-21.95 696.86-19.7L696.86-19.7Q698.96-21.95 700.94-23.28 702.91-24.6 705.01-24.6L705.01-24.6Q712.21-24.6 712.21-15.4L712.21-15.4 712.21 0 709.96 0 709.96-15.1Q709.96-18.95 708.66-20.78 707.36-22.6 704.61-22.6L704.61-22.6Q701.36-22.6 697.41-18.1L697.41-18.1 697.41 0 695.21 0 695.21-15.1Q695.21-18.95 693.91-20.78 692.61-22.6 689.81-22.6L689.81-22.6Q686.56-22.6 682.61-18.1L682.61-18.1 682.61 0ZM730.11 0.6L730.11 0.6Q727.81 0.6 725.78-0.25 723.76-1.1 722.26-2.73 720.76-4.35 719.88-6.68 719.01-9 719.01-11.95L719.01-11.95Q719.01-14.9 719.88-17.25 720.76-19.6 722.23-21.23 723.71-22.85 725.58-23.73 727.46-24.6 729.46-24.6L729.46-24.6Q733.76-24.6 736.21-21.7 738.66-18.8 738.66-13.5L738.66-13.5Q738.66-13.05 738.66-12.6 738.66-12.15 738.56-11.7L738.56-11.7 721.26-11.7Q721.31-9.45 721.96-7.53 722.61-5.6 723.78-4.23 724.96-2.85 726.61-2.08 728.26-1.3 730.31-1.3L730.31-1.3Q732.26-1.3 733.83-1.88 735.41-2.45 736.76-3.45L736.76-3.45 737.66-1.75Q736.21-0.9 734.48-0.15 732.76 0.6 730.11 0.6ZM721.26-13.5L721.26-13.5 736.56-13.5Q736.56-18.15 734.66-20.43 732.76-22.7 729.51-22.7L729.51-22.7Q727.96-22.7 726.56-22.08 725.16-21.45 724.03-20.25 722.91-19.05 722.18-17.35 721.46-15.65 721.26-13.5ZM746.06 0.6L746.06 0.6Q745.21 0.6 744.56 0 743.91-0.6 743.91-1.65L743.91-1.65Q743.91-2.75 744.56-3.35 745.21-3.95 746.06-3.95L746.06-3.95Q746.91-3.95 747.53-3.35 748.16-2.75 748.16-1.65L748.16-1.65Q748.16-0.6 747.53 0 746.91 0.6 746.06 0.6Z" opacity="1" transform="matrix(1,0,0,1,0,0)" fill="#111111" class="slogan-text-1" data-fill-palette-color="secondary" id="text-1"></path></svg></g></svg></g></svg></g></svg></g><g transform="matrix(1,0,0,1,0,0.25549553731791264)"><svg viewBox="0 0 102.19821492716731 102.19821492716731" height="102.19821492716731" width="102.19821492716731"><g><svg xmlns="http://www.w3.org/2000/svg" xmlns:xlink="http://www.w3.org/1999/xlink" version="1.1" x="0" y="0" viewBox="8 8 94 94" enable-background="new 0 0 110 110" xml:space="preserve" height="102.19821492716731" width="102.19821492716731" class="icon-icon-0" data-fill-palette-color="accent" id="icon-0"><path d="M100 36C101.1 36 102 35.1 102 34S101.1 32 100 32H92V30H100C101.1 30 102 29.1 102 28S101.1 26 100 26H92V24C92 20.69 89.31 18 86 18H84V10C84 8.9 83.1 8 82 8S80 8.9 80 10V18H78V10C78 8.9 77.1 8 76 8S74 8.9 74 10V18H72V10C72 8.9 71.1 8 70 8S68 8.9 68 10V18H66V10C66 8.9 65.1 8 64 8S62 8.9 62 10V18H60V10C60 8.9 59.1 8 58 8S56 8.9 56 10V18H54V10C54 8.9 53.1 8 52 8S50 8.9 50 10V18H48V10C48 8.9 47.1 8 46 8S44 8.9 44 10V18H42V10C42 8.9 41.1 8 40 8S38 8.9 38 10V18H36V10C36 8.9 35.1 8 34 8S32 8.9 32 10V18H30V10C30 8.9 29.1 8 28 8S26 8.9 26 10V18H24C20.69 18 18 20.69 18 24V26H10C8.9 26 8 26.9 8 28S8.9 30 10 30H18V32H10C8.9 32 8 32.9 8 34S8.9 36 10 36H18V38H10C8.9 38 8 38.9 8 40S8.9 42 10 42H18V44H10C8.9 44 8 44.9 8 46S8.9 48 10 48H18V50H10C8.9 50 8 50.9 8 52S8.9 54 10 54H18V56H10C8.9 56 8 56.9 8 58S8.9 60 10 60H18V62H10C8.9 62 8 62.9 8 64S8.9 66 10 66H18V68H10C8.9 68 8 68.9 8 70S8.9 72 10 72H18V74H10C8.9 74 8 74.9 8 76S8.9 78 10 78H18V80H10C8.9 80 8 80.9 8 82S8.9 84 10 84H18V86C18 89.31 20.69 92 24 92H26V100C26 101.1 26.9 102 28 102S30 101.1 30 100V92H32V100C32 101.1 32.9 102 34 102S36 101.1 36 100V92H38V100C38 101.1 38.9 102 40 102S42 101.1 42 100V92H44V100C44 101.1 44.9 102 46 102S48 101.1 48 100V92H50V100C50 101.1 50.9 102 52 102S54 101.1 54 100V92H56V100C56 101.1 56.9 102 58 102S60 101.1 60 100V92H62V100C62 101.1 62.9 102 64 102S66 101.1 66 100V92H68V100C68 101.1 68.9 102 70 102S72 101.1 72 100V92H74V100C74 101.1 74.9 102 76 102S78 101.1 78 100V92H80V100C80 101.1 80.9 102 82 102S84 101.1 84 100V92H86C89.31 92 92 89.31 92 86V84H100C101.1 84 102 83.1 102 82S101.1 80 100 80H92V78H100C101.1 78 102 77.1 102 76S101.1 74 100 74H92V72H100C101.1 72 102 71.1 102 70S101.1 68 100 68H92V66H100C101.1 66 102 65.1 102 64S101.1 62 100 62H92V60H100C101.1 60 102 59.1 102 58S101.1 56 100 56H92V54H100C101.1 54 102 53.1 102 52S101.1 50 100 50H92V48H100C101.1 48 102 47.1 102 46S101.1 44 100 44H92V42H100C101.1 42 102 41.1 102 40S101.1 38 100 38H92V36zM38.39 59.37L29.3 65.39 30.96 59.37H29.3C27.49 59.37 26 57.82 26 55.93V40.44C26 38.55 27.49 37 29.3 37H60.7C62.51 37 64 38.55 64 40.44V55.93C64 57.82 62.51 59.37 60.7 59.37zM84 63.54C84 65.43 82.51 66.98 80.7 66.98H79.04L80.7 73 71.61 66.98H49.3C47.49 66.98 46 65.429 46 63.54V61.37H60.7C63.62 61.37 66 58.93 66 55.93V44.61H80.7C82.51 44.61 84 46.15 84 48.05z" fill="#111111" data-fill-palette-color="accent"></path></svg></g></svg></g></svg></g><defs></defs></svg><rect width="395.52" height="75.58407180502891" fill="none" stroke="none" visibility="hidden"></rect></g></svg></g></svg>