<?xml version="1.0" encoding="UTF-8"?>
<svg version="1.1" xmlns="http://www.w3.org/2000/svg" width="290" height="287">
  <style>
    .sema-icon { fill: #101010; }
    @media (prefers-color-scheme: dark) {
      .sema-icon { fill: #ffffff; }
    }
  </style>
<path d="M0 0 C3.375 0.9375 3.375 0.9375 5.375 3.9375 C5.60205078 6.66479492 5.60205078 6.66479492 5.5703125 9.91796875 C5.56386719 11.08134766 5.55742188 12.24472656 5.55078125 13.44335938 C5.52564453 15.26577148 5.52564453 15.26577148 5.5 17.125 C5.49097656 18.35154297 5.48195313 19.57808594 5.47265625 20.84179688 C5.44906017 23.87389295 5.41613841 26.90559938 5.375 29.9375 C7.025 29.9375 8.675 29.9375 10.375 29.9375 C10.3435791 28.84078979 10.3435791 28.84078979 10.31152344 27.72192383 C10.22819686 24.39808999 10.17628668 21.07447616 10.125 17.75 C10.09148437 16.59951172 10.05796875 15.44902344 10.0234375 14.26367188 C10.00410156 12.59594727 10.00410156 12.59594727 9.984375 10.89453125 C9.9529541 9.36276245 9.9529541 9.36276245 9.92089844 7.80004883 C10.49984954 4.15047803 11.73407716 2.48443878 14.375 -0.0625 C18.36938174 0.00636865 20.5064229 0.0689229 23.375 2.9375 C23.60205078 5.64306641 23.60205078 5.64306641 23.5703125 9.0390625 C23.56386719 10.25078125 23.55742188 11.4625 23.55078125 12.7109375 C23.52564453 14.61746094 23.52564453 14.61746094 23.5 16.5625 C23.49097656 17.84125 23.48195313 19.12 23.47265625 20.4375 C23.44902303 23.60435167 23.41607629 26.77083424 23.375 29.9375 C25.025 29.9375 26.675 29.9375 28.375 29.9375 C28.3435791 28.84078979 28.3435791 28.84078979 28.31152344 27.72192383 C28.22819686 24.39808999 28.17628668 21.07447616 28.125 17.75 C28.09148437 16.59951172 28.05796875 15.44902344 28.0234375 14.26367188 C28.00410156 12.59594727 28.00410156 12.59594727 27.984375 10.89453125 C27.9529541 9.36276245 27.9529541 9.36276245 27.92089844 7.80004883 C28.49984954 4.15047803 29.73407716 2.48443878 32.375 -0.0625 C36.36938174 0.00636865 38.5064229 0.0689229 41.375 2.9375 C41.60205078 5.64306641 41.60205078 5.64306641 41.5703125 9.0390625 C41.56386719 10.25078125 41.55742188 11.4625 41.55078125 12.7109375 C41.52564453 14.61746094 41.52564453 14.61746094 41.5 16.5625 C41.49097656 17.84125 41.48195313 19.12 41.47265625 20.4375 C41.44902303 23.60435167 41.41607629 26.77083424 41.375 29.9375 C43.025 29.9375 44.675 29.9375 46.375 29.9375 C46.36452637 29.2669458 46.35405273 28.5963916 46.34326172 27.90551758 C46.30156829 24.85371684 46.27563147 21.80197616 46.25 18.75 C46.23324219 17.69490234 46.21648437 16.63980469 46.19921875 15.55273438 C46.19277344 14.53115234 46.18632813 13.50957031 46.1796875 12.45703125 C46.16921387 11.51964111 46.15874023 10.58225098 46.14794922 9.61645508 C46.39874458 6.65733949 47.01568469 4.57452652 48.375 1.9375 C51.375 -0.0625 51.375 -0.0625 54.375 0 C57.375 0.9375 57.375 0.9375 59.04418945 3.13745117 C60.53196965 6.2677669 60.72323786 8.23067343 60.66796875 11.67578125 C60.65830078 12.74248047 60.64863281 13.80917969 60.63867188 14.90820312 C60.61353516 16.01099609 60.58839844 17.11378906 60.5625 18.25 C60.54219727 19.93319336 60.54219727 19.93319336 60.52148438 21.65039062 C60.4862138 24.41325229 60.43692235 27.17512829 60.375 29.9375 C62.025 29.9375 63.675 29.9375 65.375 29.9375 C65.3435791 28.73420044 65.3435791 28.73420044 65.31152344 27.5065918 C65.22848684 23.87952152 65.17637796 20.25265094 65.125 16.625 C65.09148437 15.36236328 65.05796875 14.09972656 65.0234375 12.79882812 C65.00410156 10.98608398 65.00410156 10.98608398 64.984375 9.13671875 C64.9529541 7.46355591 64.9529541 7.46355591 64.92089844 5.7565918 C65.375 2.9375 65.375 2.9375 67.24316406 1.08129883 C69.9522496 -0.37221305 71.34715023 -0.66806995 74.375 -0.0625 C76.92718031 2.52212328 78.25452307 4.17804191 78.82910156 7.80004883 C78.8081543 8.82122803 78.78720703 9.84240723 78.765625 10.89453125 C78.75273437 12.00634766 78.73984375 13.11816406 78.7265625 14.26367188 C78.67628906 15.9894043 78.67628906 15.9894043 78.625 17.75 C78.60695312 18.91982422 78.58890625 20.08964844 78.5703125 21.29492188 C78.5232644 24.1766178 78.45753709 27.05663797 78.375 29.9375 C80.025 29.9375 81.675 29.9375 83.375 29.9375 C83.35405273 29.13530029 83.33310547 28.33310059 83.31152344 27.5065918 C83.22848684 23.87952152 83.17637796 20.25265094 83.125 16.625 C83.09148437 15.36236328 83.05796875 14.09972656 83.0234375 12.79882812 C83.01054687 11.59033203 82.99765625 10.38183594 82.984375 9.13671875 C82.96342773 8.02127686 82.94248047 6.90583496 82.92089844 5.7565918 C83.375 2.9375 83.375 2.9375 85.24316406 1.08129883 C87.9522496 -0.37221305 89.34715023 -0.66806995 92.375 -0.0625 C94.92718031 2.52212328 96.25452307 4.17804191 96.82910156 7.80004883 C96.8081543 8.82122803 96.78720703 9.84240723 96.765625 10.89453125 C96.75273437 12.00634766 96.73984375 13.11816406 96.7265625 14.26367188 C96.67628906 15.9894043 96.67628906 15.9894043 96.625 17.75 C96.60695312 18.91982422 96.58890625 20.08964844 96.5703125 21.29492188 C96.5232644 24.1766178 96.45753709 27.05663797 96.375 29.9375 C98.025 29.9375 99.675 29.9375 101.375 29.9375 C101.35405273 29.17083008 101.33310547 28.40416016 101.31152344 27.61425781 C101.22834842 24.1388054 101.17633425 20.66356237 101.125 17.1875 C101.09148437 15.9809375 101.05796875 14.774375 101.0234375 13.53125 C101.01054687 12.37109375 100.99765625 11.2109375 100.984375 10.015625 C100.96342773 8.94731445 100.94248047 7.87900391 100.92089844 6.77832031 C101.48858316 3.22693354 102.50179664 2.04621466 105.375 -0.0625 C109 -0 109 -0 112.375 0.9375 C114.70391212 4.43086818 114.61051143 5.79757865 114.5703125 9.91796875 C114.56064453 11.66303711 114.56064453 11.66303711 114.55078125 13.44335938 C114.52564453 15.26577148 114.52564453 15.26577148 114.5 17.125 C114.49097656 18.35154297 114.48195312 19.57808594 114.47265625 20.84179688 C114.44906017 23.87389295 114.41613841 26.90559938 114.375 29.9375 C116.025 29.9375 117.675 29.9375 119.375 29.9375 C119.35405273 29.17083008 119.33310547 28.40416016 119.31152344 27.61425781 C119.22834842 24.1388054 119.17633425 20.66356237 119.125 17.1875 C119.09148437 15.9809375 119.05796875 14.774375 119.0234375 13.53125 C119.01054687 12.37109375 118.99765625 11.2109375 118.984375 10.015625 C118.96342773 8.94731445 118.94248047 7.87900391 118.92089844 6.77832031 C119.48858316 3.22693354 120.50179664 2.04621466 123.375 -0.0625 C127 -0 127 -0 130.375 0.9375 C132.70391212 4.43086818 132.61051143 5.79757865 132.5703125 9.91796875 C132.56064453 11.66303711 132.56064453 11.66303711 132.55078125 13.44335938 C132.52564453 15.26577148 132.52564453 15.26577148 132.5 17.125 C132.49097656 18.35154297 132.48195312 19.57808594 132.47265625 20.84179688 C132.44906017 23.87389295 132.41613841 26.90559938 132.375 29.9375 C134.025 29.9375 135.675 29.9375 137.375 29.9375 C137.35405273 29.17083008 137.33310547 28.40416016 137.31152344 27.61425781 C137.22834842 24.1388054 137.17633425 20.66356237 137.125 17.1875 C137.09148437 15.9809375 137.05796875 14.774375 137.0234375 13.53125 C137.01054687 12.37109375 136.99765625 11.2109375 136.984375 10.015625 C136.96342773 8.94731445 136.94248047 7.87900391 136.92089844 6.77832031 C137.48858316 3.22693354 138.50179664 2.04621466 141.375 -0.0625 C145 -0 145 -0 148.375 0.9375 C150.70391212 4.43086818 150.61051143 5.79757865 150.5703125 9.91796875 C150.56064453 11.66303711 150.56064453 11.66303711 150.55078125 13.44335938 C150.52564453 15.26577148 150.52564453 15.26577148 150.5 17.125 C150.49097656 18.35154297 150.48195312 19.57808594 150.47265625 20.84179688 C150.44906017 23.87389295 150.41613841 26.90559938 150.375 29.9375 C152.025 29.9375 153.675 29.9375 155.375 29.9375 C155.35405273 29.20635986 155.33310547 28.47521973 155.31152344 27.72192383 C155.22819686 24.39808999 155.17628668 21.07447616 155.125 17.75 C155.09148437 16.59951172 155.05796875 15.44902344 155.0234375 14.26367188 C155.01054687 13.15185547 154.99765625 12.04003906 154.984375 10.89453125 C154.96342773 9.87335205 154.94248047 8.85217285 154.92089844 7.80004883 C155.49984954 4.15047803 156.73407716 2.48443878 159.375 -0.0625 C163.36938174 0.00636865 165.5064229 0.0689229 168.375 2.9375 C168.60205078 5.64306641 168.60205078 5.64306641 168.5703125 9.0390625 C168.56064453 10.85664063 168.56064453 10.85664063 168.55078125 12.7109375 C168.52564453 14.61746094 168.52564453 14.61746094 168.5 16.5625 C168.49097656 17.84125 168.48195312 19.12 168.47265625 20.4375 C168.44902303 23.60435167 168.41607629 26.77083424 168.375 29.9375 C169.28427246 29.91574707 169.28427246 29.91574707 170.21191406 29.89355469 C171.01338867 29.88227539 171.81486328 29.87099609 172.640625 29.859375 C173.82833496 29.83762207 173.82833496 29.83762207 175.04003906 29.81542969 C180.68509848 30.1105499 185.41192421 33.08450965 189.375 36.9375 C192.17671916 40.89855123 192.51552105 43.93092191 192.44921875 48.65234375 C192.43314575 50.1372229 192.43314575 50.1372229 192.41674805 51.65209961 C192.40297119 52.40628174 192.38919434 53.16046387 192.375 53.9375 C193.10614014 53.92178955 193.83728027 53.9060791 194.59057617 53.88989258 C197.9144716 53.82739649 201.2382432 53.78846248 204.5625 53.75 C206.28823242 53.71229492 206.28823242 53.71229492 208.04882812 53.67382812 C209.71655273 53.65932617 209.71655273 53.65932617 211.41796875 53.64453125 C212.43914795 53.6288208 213.46032715 53.61311035 214.51245117 53.59692383 C217.8437204 53.99326673 219.69788026 54.94495419 222.375 56.9375 C223.375 59.3125 223.375 59.3125 223.375 61.9375 C222.27612305 64.57104492 222.27612305 64.57104492 220.375 66.9375 C217.46411133 67.50512695 217.46411133 67.50512695 213.95703125 67.42578125 C212.70341797 67.40966797 211.44980469 67.39355469 210.15820312 67.37695312 C208.84787109 67.33505859 207.53753906 67.29316406 206.1875 67.25 C204.85225471 67.22491661 203.51696471 67.20210348 202.18164062 67.18164062 C198.91163293 67.12261522 195.64387667 67.04031476 192.375 66.9375 C192.375 68.9175 192.375 70.8975 192.375 72.9375 C193.62373901 72.89822388 193.62373901 72.89822388 194.89770508 72.8581543 C197.9894369 72.77289045 201.0805695 72.71023248 204.1730957 72.6628418 C206.16853555 72.62535626 208.16343052 72.56182465 210.15820312 72.49804688 C212.03862305 72.47387695 212.03862305 72.47387695 213.95703125 72.44921875 C215.11436768 72.42303467 216.2717041 72.39685059 217.46411133 72.36987305 C220.375 72.9375 220.375 72.9375 222.27612305 75.30395508 C223.375 77.9375 223.375 77.9375 223.375 80.5625 C222.01609547 83.78989826 220.49399225 84.41689304 217.375 85.9375 C214.51245117 86.27807617 214.51245117 86.27807617 211.41796875 86.23046875 C210.30615234 86.22080078 209.19433594 86.21113281 208.04882812 86.20117188 C206.3230957 86.1634668 206.3230957 86.1634668 204.5625 86.125 C202.80776367 86.10469727 202.80776367 86.10469727 201.01757812 86.08398438 C198.136248 86.04870278 195.25586096 85.9994028 192.375 85.9375 C192.375 87.5875 192.375 89.2375 192.375 90.9375 C193.17719971 90.92702637 193.97939941 90.91655273 194.8059082 90.90576172 C198.43307372 90.86424233 202.06018928 90.83818657 205.6875 90.8125 C206.95013672 90.79574219 208.21277344 90.77898437 209.51367188 90.76171875 C211.32641602 90.75205078 211.32641602 90.75205078 213.17578125 90.7421875 C214.29122314 90.73171387 215.40666504 90.72124023 216.5559082 90.71044922 C219.375 90.9375 219.375 90.9375 222.375 92.9375 C223.375 95.75 223.375 95.75 223.375 98.9375 C221.72953759 101.58102978 221.05497288 102.52965764 218.375 103.9375 C213.92433252 104.56236243 209.54548299 104.40674766 205.0625 104.25 C203.2362207 104.21616211 203.2362207 104.21616211 201.37304688 104.18164062 C198.37244518 104.1228053 195.37435203 104.0406414 192.375 103.9375 C192.375 105.5875 192.375 107.2375 192.375 108.9375 C193.17719971 108.92178955 193.97939941 108.9060791 194.8059082 108.88989258 C198.43303404 108.82761417 202.06004749 108.78853136 205.6875 108.75 C206.95013672 108.72486328 208.21277344 108.69972656 209.51367188 108.67382812 C210.72216797 108.66416016 211.93066406 108.65449219 213.17578125 108.64453125 C214.84894409 108.62096558 214.84894409 108.62096558 216.5559082 108.59692383 C219.375 108.9375 219.375 108.9375 221.19995117 110.30737305 C222.87766555 112.63484009 223.375 114.0482864 223.375 116.9375 C221.73229747 119.54197216 221.02033565 120.52099538 218.375 121.9375 C213.92497701 122.56570266 209.54523158 122.40673887 205.0625 122.25 C203.2362207 122.21616211 203.2362207 122.21616211 201.37304688 122.18164062 C198.37244518 122.1228053 195.37435203 122.0406414 192.375 121.9375 C192.375 123.5875 192.375 125.2375 192.375 126.9375 C193.17196289 126.91131592 193.96892578 126.88513184 194.79003906 126.8581543 C198.40149213 126.75421055 202.01263072 126.68917915 205.625 126.625 C206.87925781 126.58310547 208.13351562 126.54121094 209.42578125 126.49804688 C211.23369141 126.47387695 211.23369141 126.47387695 213.078125 126.44921875 C214.74343262 126.40994263 214.74343262 126.40994263 216.44238281 126.36987305 C219.375 126.9375 219.375 126.9375 221.77246094 129.30395508 C223.375 131.9375 223.375 131.9375 223.3125 134.5625 C222.27534071 137.18997021 221.6268495 138.25079228 219.375 139.9375 C216.5559082 140.27807617 216.5559082 140.27807617 213.17578125 140.23046875 C211.96728516 140.22080078 210.75878906 140.21113281 209.51367188 140.20117188 C208.25103516 140.17603516 206.98839844 140.15089844 205.6875 140.125 C204.41326172 140.11146484 203.13902344 140.09792969 201.82617188 140.08398438 C198.67535943 140.04858199 195.52538955 139.9991979 192.375 139.9375 C192.375 141.5875 192.375 143.2375 192.375 144.9375 C193.17196289 144.91131592 193.96892578 144.88513184 194.79003906 144.8581543 C198.40149213 144.75421055 202.01263072 144.68917915 205.625 144.625 C207.50638672 144.5621582 207.50638672 144.5621582 209.42578125 144.49804688 C211.23369141 144.47387695 211.23369141 144.47387695 213.078125 144.44921875 C214.74343262 144.40994263 214.74343262 144.40994263 216.44238281 144.36987305 C219.375 144.9375 219.375 144.9375 221.77246094 147.30395508 C223.375 149.9375 223.375 149.9375 223.3125 152.5625 C222.27534071 155.18997021 221.6268495 156.25079228 219.375 157.9375 C216.5559082 158.27807617 216.5559082 158.27807617 213.17578125 158.23046875 C211.96728516 158.22080078 210.75878906 158.21113281 209.51367188 158.20117188 C208.25103516 158.17603516 206.98839844 158.15089844 205.6875 158.125 C204.41326172 158.11146484 203.13902344 158.09792969 201.82617188 158.08398438 C198.67535943 158.04858199 195.52538955 157.9991979 192.375 157.9375 C192.375 159.5875 192.375 161.2375 192.375 162.9375 C193.13643311 162.91131592 193.89786621 162.88513184 194.68237305 162.8581543 C198.14220435 162.75402985 201.60170585 162.68912271 205.0625 162.625 C206.85977539 162.5621582 206.85977539 162.5621582 208.69335938 162.49804688 C218.61354213 162.35988277 218.61354213 162.35988277 221.70703125 165.29296875 C223.375 167.9375 223.375 167.9375 223.375 170.5625 C222.28516218 173.15086483 221.61189972 174.25840377 219.375 175.9375 C216.5559082 176.27807617 216.5559082 176.27807617 213.17578125 176.23046875 C211.96728516 176.22080078 210.75878906 176.21113281 209.51367188 176.20117188 C208.25103516 176.17603516 206.98839844 176.15089844 205.6875 176.125 C204.41326172 176.11146484 203.13902344 176.09792969 201.82617188 176.08398438 C198.67535943 176.04858199 195.52538955 175.9991979 192.375 175.9375 C192.375 177.5875 192.375 179.2375 192.375 180.9375 C193.13643311 180.91131592 193.89786621 180.88513184 194.68237305 180.8581543 C198.14220435 180.75402985 201.60170585 180.68912271 205.0625 180.625 C206.85977539 180.5621582 206.85977539 180.5621582 208.69335938 180.49804688 C218.61436671 180.35987129 218.61436671 180.35987129 221.70703125 183.2578125 C223.375 185.9375 223.375 185.9375 223.375 189.125 C222.375 191.9375 222.375 191.9375 219.375 193.9375 C216.5559082 194.16455078 216.5559082 194.16455078 213.17578125 194.1328125 C211.96728516 194.12636719 210.75878906 194.11992187 209.51367188 194.11328125 C207.6197168 194.08814453 207.6197168 194.08814453 205.6875 194.0625 C204.41326172 194.05347656 203.13902344 194.04445312 201.82617188 194.03515625 C198.67559373 194.01155641 195.52539017 193.97863194 192.375 193.9375 C192.375 195.5875 192.375 197.2375 192.375 198.9375 C193.47171021 198.91393433 193.47171021 198.91393433 194.59057617 198.88989258 C197.9144716 198.82739649 201.2382432 198.78846248 204.5625 198.75 C205.71298828 198.72486328 206.86347656 198.69972656 208.04882812 198.67382812 C209.71655273 198.65932617 209.71655273 198.65932617 211.41796875 198.64453125 C212.43914795 198.6288208 213.46032715 198.61311035 214.51245117 198.59692383 C217.8437204 198.99326673 219.69788026 199.94495419 222.375 201.9375 C223.375 204.3125 223.375 204.3125 223.375 206.9375 C222.27612305 209.57104492 222.27612305 209.57104492 220.375 211.9375 C217.46411133 212.50512695 217.46411133 212.50512695 213.95703125 212.42578125 C212.70341797 212.40966797 211.44980469 212.39355469 210.15820312 212.37695312 C208.84787109 212.33505859 207.53753906 212.29316406 206.1875 212.25 C204.85225471 212.22491661 203.51696471 212.20210348 202.18164062 212.18164062 C198.91163293 212.12261522 195.64387667 212.04031476 192.375 211.9375 C192.375 213.9175 192.375 215.8975 192.375 217.9375 C193.62373901 217.89822388 193.62373901 217.89822388 194.89770508 217.8581543 C197.9894369 217.77289045 201.0805695 217.71023248 204.1730957 217.6628418 C206.16853555 217.62535626 208.16343052 217.56182465 210.15820312 217.49804688 C212.03862305 217.47387695 212.03862305 217.47387695 213.95703125 217.44921875 C215.11436768 217.42303467 216.2717041 217.39685059 217.46411133 217.36987305 C220.375 217.9375 220.375 217.9375 222.27612305 220.30395508 C223.375 222.9375 223.375 222.9375 223.375 225.5625 C222.01609547 228.78989826 220.49399225 229.41689304 217.375 230.9375 C214.51245117 231.27807617 214.51245117 231.27807617 211.41796875 231.23046875 C210.30615234 231.22080078 209.19433594 231.21113281 208.04882812 231.20117188 C206.89833984 231.17603516 205.74785156 231.15089844 204.5625 231.125 C203.39267578 231.11146484 202.22285156 231.09792969 201.01757812 231.08398438 C198.136248 231.04870278 195.25586096 230.9994028 192.375 230.9375 C192.41197998 232.05137085 192.41197998 232.05137085 192.44970703 233.18774414 C192.46888184 234.16864014 192.48805664 235.14953613 192.5078125 236.16015625 C192.54479248 237.6143396 192.54479248 237.6143396 192.58251953 239.09790039 C192.2532679 243.60322478 190.35798077 246.63519231 187.375 249.9375 C182.48124292 253.83253115 178.7773736 255.09047608 172.625 255 C171.82578125 254.99097656 171.0265625 254.98195313 170.203125 254.97265625 C169.29820312 254.95525391 169.29820312 254.95525391 168.375 254.9375 C168.39594727 255.73969971 168.41689453 256.54189941 168.43847656 257.3684082 C168.52151316 260.99547848 168.57362204 264.62234906 168.625 268.25 C168.65851563 269.51263672 168.69203125 270.77527344 168.7265625 272.07617188 C168.73945313 273.28466797 168.75234375 274.49316406 168.765625 275.73828125 C168.78657227 276.85372314 168.80751953 277.96916504 168.82910156 279.1184082 C168.375 281.9375 168.375 281.9375 166.50683594 283.79370117 C163.7977504 285.24721305 162.40284977 285.54306995 159.375 284.9375 C156.82281969 282.35287672 155.49547693 280.69695809 154.92089844 277.07495117 C154.9418457 276.05377197 154.96279297 275.03259277 154.984375 273.98046875 C154.99726563 272.86865234 155.01015625 271.75683594 155.0234375 270.61132812 C155.05695313 269.46083984 155.09046875 268.31035156 155.125 267.125 C155.14304688 265.95517578 155.16109375 264.78535156 155.1796875 263.58007812 C155.2267356 260.6983822 155.29246291 257.81836203 155.375 254.9375 C153.725 254.9375 152.075 254.9375 150.375 254.9375 C150.39594727 255.70416992 150.41689453 256.47083984 150.43847656 257.26074219 C150.52165158 260.7361946 150.57366575 264.21143763 150.625 267.6875 C150.67527344 269.49734375 150.67527344 269.49734375 150.7265625 271.34375 C150.73945313 272.50390625 150.75234375 273.6640625 150.765625 274.859375 C150.78657227 275.92768555 150.80751953 276.99599609 150.82910156 278.09667969 C150.26141684 281.64806646 149.24820336 282.82878534 146.375 284.9375 C142.75 284.875 142.75 284.875 139.375 283.9375 C137.04608788 280.44413182 137.13948857 279.07742135 137.1796875 274.95703125 C137.18935547 273.21196289 137.18935547 273.21196289 137.19921875 271.43164062 C137.22435547 269.60922852 137.22435547 269.60922852 137.25 267.75 C137.25902344 266.52345703 137.26804688 265.29691406 137.27734375 264.03320312 C137.30093983 261.00110705 137.33386159 257.96940062 137.375 254.9375 C135.725 254.9375 134.075 254.9375 132.375 254.9375 C132.39594727 255.70416992 132.41689453 256.47083984 132.43847656 257.26074219 C132.52165158 260.7361946 132.57366575 264.21143763 132.625 267.6875 C132.67527344 269.49734375 132.67527344 269.49734375 132.7265625 271.34375 C132.73945313 272.50390625 132.75234375 273.6640625 132.765625 274.859375 C132.78657227 275.92768555 132.80751953 276.99599609 132.82910156 278.09667969 C132.26141684 281.64806646 131.24820336 282.82878534 128.375 284.9375 C124.75 284.875 124.75 284.875 121.375 283.9375 C119.04608788 280.44413182 119.13948857 279.07742135 119.1796875 274.95703125 C119.18935547 273.21196289 119.18935547 273.21196289 119.19921875 271.43164062 C119.22435547 269.60922852 119.22435547 269.60922852 119.25 267.75 C119.25902344 266.52345703 119.26804688 265.29691406 119.27734375 264.03320312 C119.30093983 261.00110705 119.33386159 257.96940062 119.375 254.9375 C117.725 254.9375 116.075 254.9375 114.375 254.9375 C114.39594727 255.70416992 114.41689453 256.47083984 114.43847656 257.26074219 C114.52165158 260.7361946 114.57366575 264.21143763 114.625 267.6875 C114.67527344 269.49734375 114.67527344 269.49734375 114.7265625 271.34375 C114.73945313 272.50390625 114.75234375 273.6640625 114.765625 274.859375 C114.78657227 275.92768555 114.80751953 276.99599609 114.82910156 278.09667969 C114.26141684 281.64806646 113.24820336 282.82878534 110.375 284.9375 C106.75 284.875 106.75 284.875 103.375 283.9375 C101.04608788 280.44413182 101.13948857 279.07742135 101.1796875 274.95703125 C101.18935547 273.21196289 101.18935547 273.21196289 101.19921875 271.43164062 C101.22435547 269.60922852 101.22435547 269.60922852 101.25 267.75 C101.25902344 266.52345703 101.26804688 265.29691406 101.27734375 264.03320312 C101.30093983 261.00110705 101.33386159 257.96940062 101.375 254.9375 C99.725 254.9375 98.075 254.9375 96.375 254.9375 C96.39594727 255.66864014 96.41689453 256.39978027 96.43847656 257.15307617 C96.52180314 260.47691001 96.57371332 263.80052384 96.625 267.125 C96.65851563 268.27548828 96.69203125 269.42597656 96.7265625 270.61132812 C96.73945313 271.72314453 96.75234375 272.83496094 96.765625 273.98046875 C96.78657227 275.00164795 96.80751953 276.02282715 96.82910156 277.07495117 C96.25015046 280.72452197 95.01592284 282.39056122 92.375 284.9375 C88.38061826 284.86863135 86.2435771 284.8060771 83.375 281.9375 C83.14794922 279.23193359 83.14794922 279.23193359 83.1796875 275.8359375 C83.18935547 274.01835938 83.18935547 274.01835938 83.19921875 272.1640625 C83.22435547 270.25753906 83.22435547 270.25753906 83.25 268.3125 C83.25902344 267.03375 83.26804688 265.755 83.27734375 264.4375 C83.30097697 261.27064833 83.33392371 258.10416576 83.375 254.9375 C81.725 254.9375 80.075 254.9375 78.375 254.9375 C78.39594727 255.66864014 78.41689453 256.39978027 78.43847656 257.15307617 C78.52180314 260.47691001 78.57371332 263.80052384 78.625 267.125 C78.65851563 268.27548828 78.69203125 269.42597656 78.7265625 270.61132812 C78.73945313 271.72314453 78.75234375 272.83496094 78.765625 273.98046875 C78.78657227 275.00164795 78.80751953 276.02282715 78.82910156 277.07495117 C78.25015046 280.72452197 77.01592284 282.39056122 74.375 284.9375 C70.38061826 284.86863135 68.2435771 284.8060771 65.375 281.9375 C65.14794922 279.23193359 65.14794922 279.23193359 65.1796875 275.8359375 C65.18613281 274.62421875 65.19257813 273.4125 65.19921875 272.1640625 C65.22435547 270.25753906 65.22435547 270.25753906 65.25 268.3125 C65.25902344 267.03375 65.26804687 265.755 65.27734375 264.4375 C65.30097697 261.27064833 65.33392371 258.10416576 65.375 254.9375 C63.725 254.9375 62.075 254.9375 60.375 254.9375 C60.39071045 255.63834717 60.4064209 256.33919434 60.42260742 257.0612793 C60.48512412 260.24910351 60.52404381 263.43679851 60.5625 266.625 C60.58763672 267.72779297 60.61277344 268.83058594 60.63867188 269.96679688 C60.64833984 271.03349609 60.65800781 272.10019531 60.66796875 273.19921875 C60.6836792 274.17850342 60.69938965 275.15778809 60.71557617 276.16674805 C60.31127261 279.45595314 59.36454105 281.30451553 57.375 283.9375 C54.4375 284.9375 54.4375 284.9375 51.375 284.9375 C48.88287373 283.65775948 47.68136448 282.84448861 46.77563477 280.16308594 C46.30909432 277.5713841 46.26271162 275.149409 46.27734375 272.515625 C46.28217773 270.97841797 46.28217773 270.97841797 46.28710938 269.41015625 C46.29967773 267.81494141 46.29967773 267.81494141 46.3125 266.1875 C46.31701172 265.10855469 46.32152344 264.02960938 46.32617188 262.91796875 C46.33794273 260.25775617 46.35438601 257.59765635 46.375 254.9375 C44.725 254.9375 43.075 254.9375 41.375 254.9375 C41.4064209 256.14079956 41.4064209 256.14079956 41.43847656 257.3684082 C41.52151316 260.99547848 41.57362204 264.62234906 41.625 268.25 C41.65851563 269.51263672 41.69203125 270.77527344 41.7265625 272.07617188 C41.74589844 273.88891602 41.74589844 273.88891602 41.765625 275.73828125 C41.78657227 276.85372314 41.80751953 277.96916504 41.82910156 279.1184082 C41.375 281.9375 41.375 281.9375 39.50683594 283.79370117 C36.7977504 285.24721305 35.40284977 285.54306995 32.375 284.9375 C29.82281969 282.35287672 28.49547693 280.69695809 27.92089844 277.07495117 C27.9418457 276.05377197 27.96279297 275.03259277 27.984375 273.98046875 C27.99726562 272.86865234 28.01015625 271.75683594 28.0234375 270.61132812 C28.05695313 269.46083984 28.09046875 268.31035156 28.125 267.125 C28.14304687 265.95517578 28.16109375 264.78535156 28.1796875 263.58007812 C28.2267356 260.6983822 28.29246291 257.81836203 28.375 254.9375 C26.725 254.9375 25.075 254.9375 23.375 254.9375 C23.4064209 256.14079956 23.4064209 256.14079956 23.43847656 257.3684082 C23.52151316 260.99547848 23.57362204 264.62234906 23.625 268.25 C23.65851563 269.51263672 23.69203125 270.77527344 23.7265625 272.07617188 C23.74589844 273.88891602 23.74589844 273.88891602 23.765625 275.73828125 C23.78657227 276.85372314 23.80751953 277.96916504 23.82910156 279.1184082 C23.375 281.9375 23.375 281.9375 21.50683594 283.79370117 C18.7977504 285.24721305 17.40284977 285.54306995 14.375 284.9375 C11.82281969 282.35287672 10.49547693 280.69695809 9.92089844 277.07495117 C9.9418457 276.05377197 9.96279297 275.03259277 9.984375 273.98046875 C9.99726562 272.86865234 10.01015625 271.75683594 10.0234375 270.61132812 C10.05695313 269.46083984 10.09046875 268.31035156 10.125 267.125 C10.14304687 265.95517578 10.16109375 264.78535156 10.1796875 263.58007812 C10.2267356 260.6983822 10.29246291 257.81836203 10.375 254.9375 C8.725 254.9375 7.075 254.9375 5.375 254.9375 C5.4064209 256.08750488 5.4064209 256.08750488 5.43847656 257.26074219 C5.52165158 260.7361946 5.57366575 264.21143763 5.625 267.6875 C5.65851563 268.8940625 5.69203125 270.100625 5.7265625 271.34375 C5.74589844 273.08398438 5.74589844 273.08398438 5.765625 274.859375 C5.7970459 276.46184082 5.7970459 276.46184082 5.82910156 278.09667969 C5.26141684 281.64806646 4.24820336 282.82878534 1.375 284.9375 C-2.25 284.875 -2.25 284.875 -5.625 283.9375 C-7.95391212 280.44413182 -7.86051143 279.07742135 -7.8203125 274.95703125 C-7.81386719 273.79365234 -7.80742188 272.63027344 -7.80078125 271.43164062 C-7.78402344 270.21669922 -7.76726563 269.00175781 -7.75 267.75 C-7.74097656 266.52345703 -7.73195312 265.29691406 -7.72265625 264.03320312 C-7.69906017 261.00110705 -7.66613841 257.96940062 -7.625 254.9375 C-9.47931641 254.9684375 -9.47931641 254.9684375 -11.37109375 255 C-17.07751983 254.98995126 -21.36564286 254.0311128 -25.6484375 250.0625 C-29.90766355 245.33388986 -31.77162236 242.22742198 -31.6875 235.75 C-31.67847656 234.84894531 -31.66945313 233.94789063 -31.66015625 233.01953125 C-31.64855469 232.33246094 -31.63695313 231.64539063 -31.625 230.9375 C-32.36137695 230.94797363 -33.09775391 230.95844727 -33.85644531 230.96923828 C-37.19592876 231.01083702 -40.53535765 231.03683864 -43.875 231.0625 C-45.03386719 231.07925781 -46.19273438 231.09601563 -47.38671875 231.11328125 C-48.50175781 231.11972656 -49.61679687 231.12617188 -50.765625 231.1328125 C-51.79204102 231.14328613 -52.81845703 231.15375977 -53.87597656 231.16455078 C-56.6768709 230.93321581 -58.2890697 230.46990793 -60.625 228.9375 C-62.02435013 226.13879973 -61.87765405 224.03251208 -61.625 220.9375 C-60.49682617 219.2644043 -60.49682617 219.2644043 -58.625 217.9375 C-55.8059082 217.59692383 -55.8059082 217.59692383 -52.42578125 217.64453125 C-51.21728516 217.65419922 -50.00878906 217.66386719 -48.76367188 217.67382812 C-47.50103516 217.69896484 -46.23839844 217.72410156 -44.9375 217.75 C-43.66326172 217.76353516 -42.38902344 217.77707031 -41.07617188 217.79101562 C-37.92535943 217.82641801 -34.77538955 217.8758021 -31.625 217.9375 C-31.625 215.9575 -31.625 213.9775 -31.625 211.9375 C-32.82829956 211.96106567 -32.82829956 211.96106567 -34.0559082 211.98510742 C-37.68303404 212.04738583 -41.31004749 212.08646864 -44.9375 212.125 C-46.20013672 212.15013672 -47.46277344 212.17527344 -48.76367188 212.20117188 C-50.57641602 212.21567383 -50.57641602 212.21567383 -52.42578125 212.23046875 C-54.09894409 212.25403442 -54.09894409 212.25403442 -55.8059082 212.27807617 C-58.625 211.9375 -58.625 211.9375 -60.48901367 210.60668945 C-62.26141707 208.00236492 -62.00733004 205.99614034 -61.625 202.9375 C-59.77157225 200.37800454 -58.68743607 199.95831202 -55.625 198.9375 C-53.77889468 198.85510831 -51.92994836 198.83006641 -50.08203125 198.83984375 C-49.00888672 198.84306641 -47.93574219 198.84628906 -46.83007812 198.84960938 C-45.71052734 198.85798828 -44.59097656 198.86636719 -43.4375 198.875 C-41.74077148 198.88176758 -41.74077148 198.88176758 -40.00976562 198.88867188 C-37.21479073 198.90046502 -34.4199218 198.9169235 -31.625 198.9375 C-31.625 197.2875 -31.625 195.6375 -31.625 193.9375 C-32.82829956 193.96106567 -32.82829956 193.96106567 -34.0559082 193.98510742 C-37.68303404 194.04738583 -41.31004749 194.08646864 -44.9375 194.125 C-46.20013672 194.15013672 -47.46277344 194.17527344 -48.76367188 194.20117188 C-50.57641602 194.21567383 -50.57641602 194.21567383 -52.42578125 194.23046875 C-54.09894409 194.25403442 -54.09894409 194.25403442 -55.8059082 194.27807617 C-58.625 193.9375 -58.625 193.9375 -60.49291992 192.60668945 C-62.24008219 190.03059533 -61.94035193 187.96487854 -61.625 184.9375 C-59.625 181.9375 -59.625 181.9375 -56.625 180.9375 C-54.70593083 180.85483514 -52.78410526 180.83009337 -50.86328125 180.83984375 C-49.74501953 180.84306641 -48.62675781 180.84628906 -47.47460938 180.84960938 C-46.30736328 180.85798828 -45.14011719 180.86636719 -43.9375 180.875 C-42.75865234 180.87951172 -41.57980469 180.88402344 -40.36523438 180.88867188 C-37.45177211 180.90046727 -34.53841137 180.9169273 -31.625 180.9375 C-31.625 179.2875 -31.625 177.6375 -31.625 175.9375 C-32.82829956 175.96106567 -32.82829956 175.96106567 -34.0559082 175.98510742 C-37.68303404 176.04738583 -41.31004749 176.08646864 -44.9375 176.125 C-46.20013672 176.15013672 -47.46277344 176.17527344 -48.76367188 176.20117188 C-50.57641602 176.21567383 -50.57641602 176.21567383 -52.42578125 176.23046875 C-54.09894409 176.25403442 -54.09894409 176.25403442 -55.8059082 176.27807617 C-58.625 175.9375 -58.625 175.9375 -60.48510742 174.6027832 C-62.29365508 171.9606535 -62.0692759 170.04743127 -61.625 166.9375 C-59.47807889 164.11354153 -58.32692124 163.04970123 -54.78417969 162.48339844 C-53.71586914 162.5043457 -52.64755859 162.52529297 -51.546875 162.546875 C-50.38671875 162.55976563 -49.2265625 162.57265625 -48.03125 162.5859375 C-46.22140625 162.63621094 -46.22140625 162.63621094 -44.375 162.6875 C-43.15296875 162.70554688 -41.9309375 162.72359375 -40.671875 162.7421875 C-37.65545922 162.789319 -34.64062509 162.85510587 -31.625 162.9375 C-31.625 161.2875 -31.625 159.6375 -31.625 157.9375 C-32.77500488 157.96106567 -32.77500488 157.96106567 -33.94824219 157.98510742 C-37.42375302 158.04748974 -40.89914601 158.08650162 -44.375 158.125 C-45.5815625 158.15013672 -46.788125 158.17527344 -48.03125 158.20117188 C-49.77148438 158.21567383 -49.77148438 158.21567383 -51.546875 158.23046875 C-53.14934082 158.25403442 -53.14934082 158.25403442 -54.78417969 158.27807617 C-58.01189708 157.89111624 -59.37131481 157.25815602 -61.625 154.9375 C-62.125 151.4375 -62.125 151.4375 -61.625 147.9375 C-59.37131481 145.61684398 -58.01189708 144.98388376 -54.78417969 144.59692383 C-53.71586914 144.61263428 -52.64755859 144.62834473 -51.546875 144.64453125 C-50.38671875 144.65419922 -49.2265625 144.66386719 -48.03125 144.67382812 C-46.8246875 144.69896484 -45.618125 144.72410156 -44.375 144.75 C-43.15296875 144.76353516 -41.9309375 144.77707031 -40.671875 144.79101562 C-37.65580502 144.8263602 -34.64062513 144.8757044 -31.625 144.9375 C-31.625 143.2875 -31.625 141.6375 -31.625 139.9375 C-32.77500488 139.96106567 -32.77500488 139.96106567 -33.94824219 139.98510742 C-37.42375302 140.04748974 -40.89914601 140.08650162 -44.375 140.125 C-45.5815625 140.15013672 -46.788125 140.17527344 -48.03125 140.20117188 C-49.77148438 140.21567383 -49.77148438 140.21567383 -51.546875 140.23046875 C-53.14934082 140.25403442 -53.14934082 140.25403442 -54.78417969 140.27807617 C-58.01189708 139.89111624 -59.37131481 139.25815602 -61.625 136.9375 C-62.125 133.4375 -62.125 133.4375 -61.625 129.9375 C-59.37131481 127.61684398 -58.01189708 126.98388376 -54.78417969 126.59692383 C-53.71586914 126.61263428 -52.64755859 126.62834473 -51.546875 126.64453125 C-50.38671875 126.65419922 -49.2265625 126.66386719 -48.03125 126.67382812 C-46.22140625 126.7115332 -46.22140625 126.7115332 -44.375 126.75 C-42.54195312 126.77030273 -42.54195312 126.77030273 -40.671875 126.79101562 C-37.65580502 126.8263602 -34.64062513 126.8757044 -31.625 126.9375 C-31.625 125.2875 -31.625 123.6375 -31.625 121.9375 C-32.39166992 121.95844727 -33.15833984 121.97939453 -33.94824219 122.00097656 C-37.4236946 122.08415158 -40.89893763 122.13616575 -44.375 122.1875 C-45.5815625 122.22101563 -46.788125 122.25453125 -48.03125 122.2890625 C-49.77148438 122.30839844 -49.77148438 122.30839844 -51.546875 122.328125 C-52.61518555 122.34907227 -53.68349609 122.37001953 -54.78417969 122.39160156 C-58.32692124 121.82529877 -59.47807889 120.76145847 -61.625 117.9375 C-62.0692759 114.82756873 -62.29365508 112.9143465 -60.48510742 110.2722168 C-57.78368909 108.33381884 -55.72249124 108.59809871 -52.42578125 108.64453125 C-51.21728516 108.65419922 -50.00878906 108.66386719 -48.76367188 108.67382812 C-47.50103516 108.69896484 -46.23839844 108.72410156 -44.9375 108.75 C-43.02614258 108.77030273 -43.02614258 108.77030273 -41.07617188 108.79101562 C-37.92535943 108.82641801 -34.77538955 108.8758021 -31.625 108.9375 C-31.625 107.2875 -31.625 105.6375 -31.625 103.9375 C-32.36137695 103.94797363 -33.09775391 103.95844727 -33.85644531 103.96923828 C-37.19592876 104.01083702 -40.53535765 104.03683864 -43.875 104.0625 C-45.03386719 104.07925781 -46.19273438 104.09601563 -47.38671875 104.11328125 C-48.50175781 104.11972656 -49.61679687 104.12617187 -50.765625 104.1328125 C-51.79204102 104.14328613 -52.81845703 104.15375977 -53.87597656 104.16455078 C-56.6768709 103.93321581 -58.2890697 103.46990793 -60.625 101.9375 C-62.02435013 99.13879973 -61.87765405 97.03251208 -61.625 93.9375 C-60.49682617 92.2644043 -60.49682617 92.2644043 -58.625 90.9375 C-55.8059082 90.59692383 -55.8059082 90.59692383 -52.42578125 90.64453125 C-51.21728516 90.65419922 -50.00878906 90.66386719 -48.76367188 90.67382812 C-47.50103516 90.69896484 -46.23839844 90.72410156 -44.9375 90.75 C-43.02614258 90.77030273 -43.02614258 90.77030273 -41.07617188 90.79101562 C-37.92535943 90.82641801 -34.77538955 90.8758021 -31.625 90.9375 C-31.625 89.2875 -31.625 87.6375 -31.625 85.9375 C-32.32584717 85.94797363 -33.02669434 85.95844727 -33.7487793 85.96923828 C-36.93664945 86.01091668 -40.12446215 86.03686385 -43.3125 86.0625 C-44.41529297 86.07925781 -45.51808594 86.09601563 -46.65429688 86.11328125 C-47.72099609 86.11972656 -48.78769531 86.12617187 -49.88671875 86.1328125 C-51.35564575 86.14852295 -51.35564575 86.14852295 -52.85424805 86.16455078 C-55.83227901 85.92051441 -57.96338634 85.28142767 -60.625 83.9375 C-62.02435013 81.13879973 -61.87765405 79.03251208 -61.625 75.9375 C-60.49682617 74.2644043 -60.49682617 74.2644043 -58.625 72.9375 C-55.8059082 72.59692383 -55.8059082 72.59692383 -52.42578125 72.64453125 C-51.21728516 72.65419922 -50.00878906 72.66386719 -48.76367188 72.67382812 C-47.50103516 72.69896484 -46.23839844 72.72410156 -44.9375 72.75 C-43.02614258 72.77030273 -43.02614258 72.77030273 -41.07617188 72.79101562 C-37.92535943 72.82641801 -34.77538955 72.8758021 -31.625 72.9375 C-31.625 70.9575 -31.625 68.9775 -31.625 66.9375 C-32.42719971 66.95321045 -33.22939941 66.9689209 -34.0559082 66.98510742 C-37.68303404 67.04738583 -41.31004749 67.08646864 -44.9375 67.125 C-46.83145508 67.16270508 -46.83145508 67.16270508 -48.76367188 67.20117188 C-49.97216797 67.21083984 -51.18066406 67.22050781 -52.42578125 67.23046875 C-53.54122314 67.2461792 -54.65666504 67.26188965 -55.8059082 67.27807617 C-58.625 66.9375 -58.625 66.9375 -60.48901367 65.60668945 C-62.26141707 63.00236492 -62.00733004 60.99614034 -61.625 57.9375 C-60.07993534 55.90082385 -58.90353844 55.07676922 -56.625 53.9375 C-54.7386088 53.852585 -52.84921485 53.830307 -50.9609375 53.83984375 C-49.83945312 53.84306641 -48.71796875 53.84628906 -47.5625 53.84960938 C-46.386875 53.85798828 -45.21125 53.86636719 -44 53.875 C-42.81664063 53.87951172 -41.63328125 53.88402344 -40.4140625 53.88867188 C-37.48432493 53.90048533 -34.55468728 53.91695742 -31.625 53.9375 C-31.63732666 53.25333008 -31.64965332 52.56916016 -31.66235352 51.86425781 C-31.67194092 50.96545898 -31.68152832 50.06666016 -31.69140625 49.140625 C-31.70373291 48.25020508 -31.71605957 47.35978516 -31.72875977 46.44238281 C-31.54937949 42.11193183 -30.03129933 39.41482454 -27.078125 36.3125 C-22.28620134 31.90223398 -18.02317595 29.83085204 -11.43359375 29.8984375 C-9.54833984 29.91777344 -9.54833984 29.91777344 -7.625 29.9375 C-7.64594727 29.17083008 -7.66689453 28.40416016 -7.68847656 27.61425781 C-7.77165158 24.1388054 -7.82366575 20.66356237 -7.875 17.1875 C-7.90851562 15.9809375 -7.94203125 14.774375 -7.9765625 13.53125 C-7.98945312 12.37109375 -8.00234375 11.2109375 -8.015625 10.015625 C-8.03657227 8.94731445 -8.05751953 7.87900391 -8.07910156 6.77832031 C-7.26923076 1.71183825 -5.03932622 -0.08688493 0 0 Z M-5.625 92.9375 C-6.60949906 95.89099717 -6.76824635 97.87359179 -6.80200195 100.95629883 C-6.81483719 101.97778519 -6.82767242 102.99927155 -6.84089661 104.05171204 C-6.84828354 105.15484238 -6.85567047 106.25797272 -6.86328125 107.39453125 C-6.871353 108.5302507 -6.87942474 109.66597015 -6.88774109 110.83610535 C-6.90157793 113.24106318 -6.91230187 115.64604061 -6.92016602 118.05102539 C-6.93738355 121.72515113 -6.98127539 125.39837822 -7.02539062 129.07226562 C-7.03551723 131.40884755 -7.04403343 133.74543712 -7.05078125 136.08203125 C-7.06828934 137.1790889 -7.08579742 138.27614655 -7.10383606 139.40644836 C-7.08641691 145.54479633 -6.81291767 149.30423541 -2.625 153.9375 C-0.21954362 155.14022819 1.32496953 155.03821472 4 155 C4.81726563 154.99097656 5.63453125 154.98195313 6.4765625 154.97265625 C7.10304688 154.96105469 7.72953125 154.94945312 8.375 154.9375 C8.07464844 155.91332031 7.77429688 156.88914062 7.46484375 157.89453125 C7.08027555 159.17955183 6.69618586 160.46471569 6.3125 161.75 C6.11333984 162.39259766 5.91417969 163.03519531 5.70898438 163.69726562 C4.49390735 167.79665775 4.49390735 167.79665775 5.375 171.9375 C5.90728714 171.45903122 6.43957428 170.98056244 6.98799133 170.4875946 C25.32317607 154.68108614 40.7660682 153.81499469 64.10797119 154.66674805 C70.62918076 154.88793243 77.15384478 154.96267337 83.67803383 155.04105186 C85.93600972 155.08123996 88.18993424 155.16017579 90.44657898 155.24604797 C91.82398761 155.27910935 93.20141326 155.31147122 94.57885742 155.34301758 C95.77443771 155.38461502 96.97001801 155.42621246 98.201828 155.46907043 C102.33652463 154.77642519 103.75556411 153.12293253 106.375 149.9375 C107.61343724 147.46062553 107.51521119 145.78706793 107.53613281 143.01635742 C107.54574036 141.99156784 107.5553479 140.96677826 107.56524658 139.91093445 C107.56949646 138.79950577 107.57374634 137.68807709 107.578125 136.54296875 C107.58382507 135.40346268 107.58952515 134.2639566 107.59539795 133.08992004 C107.60485769 130.67478364 107.61138578 128.25963428 107.61523438 125.84448242 C107.62493266 122.1506493 107.65594464 118.45737414 107.6875 114.76367188 C107.69403061 112.41927414 107.69928085 110.07487243 107.703125 107.73046875 C107.7216452 106.07243477 107.7216452 106.07243477 107.74053955 104.38090515 C107.73753845 103.34665909 107.73453735 102.31241302 107.73144531 101.24682617 C107.73509094 100.34018723 107.73873657 99.43354828 107.74249268 98.49943542 C107.29074954 95.35015703 106.23626134 93.50063144 104.375 90.9375 C101.29466284 88.88394189 100.6538779 88.68576681 97.17556763 88.67007446 C95.89285477 88.65727951 95.89285477 88.65727951 94.58422852 88.64422607 C93.64909424 88.64513245 92.71395996 88.64603882 91.75048828 88.64697266 C90.76321747 88.64025543 89.77594666 88.63353821 88.75875854 88.62661743 C85.48755899 88.60758371 82.21656402 88.60371049 78.9453125 88.6015625 C76.67471227 88.59513824 74.40411287 88.58841017 72.1335144 88.58139038 C67.37040284 88.56940411 62.60736387 88.56571094 57.84423828 88.56689453 C51.73852241 88.56709778 45.6332717 88.53979537 39.52766609 88.50535011 C34.83680073 88.48312071 30.146048 88.47905578 25.45513535 88.48011398 C23.20405347 88.47775206 20.95296875 88.46889546 18.70193863 88.45344925 C15.55372737 88.43387017 12.40652808 88.43959602 9.25830078 88.45166016 C8.32721497 88.44042114 7.39612915 88.42918213 6.43682861 88.41760254 C1.18250178 88.46880999 -1.91119634 88.81820658 -5.625 92.9375 Z M114.375 111.9375 C114.3656543 113.01644531 114.35630859 114.09539062 114.34667969 115.20703125 C114.30656792 119.24047938 114.24075227 123.27318163 114.16748047 127.30615234 C114.13939297 129.04596314 114.11811806 130.78589865 114.10400391 132.52587891 C114.08240347 135.0387297 114.03567014 137.55010033 113.984375 140.0625 C113.98253204 141.21455933 113.98253204 141.21455933 113.98065186 142.38989258 C113.83301486 147.93163356 112.72748942 152.43334483 109.375 156.9375 C103.61811157 161.6037216 98.18636578 161.53831735 90.97265625 161.546875 C89.3561039 161.57167938 89.3561039 161.57167938 87.70689392 161.59698486 C84.28370397 161.64535206 80.86095796 161.66681155 77.4375 161.6875 C75.10870176 161.71566899 72.7799241 161.74559771 70.45117188 161.77734375 C64.75919487 161.85110799 59.06734213 161.90281659 53.375 161.9375 C53.21023819 168.19814251 53.21023819 168.19814251 55.375 173.9375 C58.10087714 176.61709175 59.67929089 177.84622815 63.51020813 178.34881592 C64.68802353 178.30943909 65.86583893 178.27006226 67.0793457 178.22949219 C67.73402832 178.21412918 68.38871094 178.19876617 69.06323242 178.18293762 C70.48203513 178.14883144 71.90065724 178.1064088 73.31899452 178.05657196 C75.59047293 177.983091 77.8598786 177.94571206 80.13237 177.91949463 C86.59181692 177.84425786 93.04860262 177.75306438 99.50463867 177.52294922 C122.81861607 176.72736659 137.4209464 178.88872693 155.375 194.9375 C156.035 194.6075 156.695 194.2775 157.375 193.9375 C156.055 188.9875 154.735 184.0375 153.375 178.9375 C155.84895833 178.57942708 158.32291667 178.22135417 160.796875 177.86328125 C164.47266114 176.54333986 165.37920303 175.34259948 167.375 171.9375 C167.9903521 167.91100394 167.95915462 163.91469966 167.94140625 159.84765625 C167.94760483 158.6703746 167.95380341 157.49309296 167.96018982 156.28013611 C167.96728681 153.79296698 167.9641162 151.30575034 167.95141602 148.81860352 C167.9375614 145.01684939 167.97161479 141.21756153 168.00976562 137.41601562 C168.01071693 134.99739523 168.00885737 132.57877176 168.00390625 130.16015625 C168.01716446 129.02562515 168.03042267 127.89109406 168.04408264 126.72218323 C168.01957384 120.14781012 168.01957384 120.14781012 165.52246094 114.21020508 C160.88129151 110.85892939 156.97449246 111.18259984 151.38671875 111.3515625 C150.32838333 111.36005219 149.27004791 111.36854187 148.17964172 111.37728882 C144.80621663 111.41082054 141.43520001 111.48610434 138.0625 111.5625 C135.77282103 111.59259967 133.48310451 111.61997546 131.19335938 111.64453125 C125.58642071 111.71061078 119.98088242 111.81095767 114.375 111.9375 Z " class="sema-icon" transform="translate(63.625,1.0625)"/>
</svg>
